<mxfile host="65bd71144e">
    <diagram id="SRmhm09hOjbVlPs2l3fy" name="DFD-0">
        <mxGraphModel dx="837" dy="912" grid="1" gridSize="10" guides="1" tooltips="1" connect="1" arrows="1" fold="1" page="1" pageScale="1" pageWidth="850" pageHeight="1100" math="0" shadow="0">
            <root>
                <mxCell id="0"/>
                <mxCell id="1" parent="0"/>
                <mxCell id="14" value="&lt;div style=&quot;font-size: 12px;&quot;&gt;&lt;span style=&quot;background-color: initial;&quot;&gt;&lt;font style=&quot;font-size: 12px;&quot;&gt;Air ticket&amp;nbsp;&lt;/font&gt;&lt;/span&gt;&lt;/div&gt;&lt;div style=&quot;font-size: 12px;&quot;&gt;&lt;span style=&quot;background-color: initial;&quot;&gt;&lt;font style=&quot;font-size: 12px;&quot;&gt;reservation&lt;/font&gt;&lt;/span&gt;&lt;/div&gt;&lt;div style=&quot;font-size: 12px;&quot;&gt;&lt;span style=&quot;background-color: initial;&quot;&gt;&lt;font style=&quot;font-size: 12px;&quot;&gt;&amp;nbsp;system&lt;/font&gt;&lt;/span&gt;&lt;/div&gt;" style="shape=ellipse;html=1;dashed=0;whitespace=wrap;aspect=fixed;perimeter=ellipsePerimeter;fontSize=18;align=center;" parent="1" vertex="1">
                    <mxGeometry x="390" y="395" width="90" height="90" as="geometry"/>
                </mxCell>
                <mxCell id="70K7XfDIF0psGtKScyR6-52" value="" style="edgeStyle=none;html=1;" parent="1" source="15" target="51" edge="1">
                    <mxGeometry relative="1" as="geometry"/>
                </mxCell>
                <mxCell id="15" value="&lt;font style=&quot;font-size: 12px;&quot;&gt;User&lt;/font&gt;" style="whiteSpace=wrap;html=1;fontSize=18;dashed=0;" parent="1" vertex="1">
                    <mxGeometry x="120" y="315" width="95" height="42.5" as="geometry"/>
                </mxCell>
                <mxCell id="19" value="&lt;font style=&quot;font-size: 12px;&quot;&gt;Admin&lt;/font&gt;" style="whiteSpace=wrap;html=1;fontSize=18;dashed=0;" parent="1" vertex="1">
                    <mxGeometry x="382.5" y="655" width="105" height="45" as="geometry"/>
                </mxCell>
                <mxCell id="26" value="Ticket Details" style="text;html=1;align=center;verticalAlign=middle;resizable=0;points=[];autosize=1;strokeColor=none;fillColor=none;fontSize=12;" parent="1" vertex="1">
                    <mxGeometry x="340" y="357.5" width="100" height="30" as="geometry"/>
                </mxCell>
                <mxCell id="27" value="Reg num" style="text;html=1;align=center;verticalAlign=middle;resizable=0;points=[];autosize=1;strokeColor=none;fillColor=none;fontSize=12;" parent="1" vertex="1">
                    <mxGeometry x="320" y="475" width="70" height="30" as="geometry"/>
                </mxCell>
                <mxCell id="43" value="" style="endArrow=classic;startArrow=classic;html=1;fontSize=12;exitX=1;exitY=0.75;exitDx=0;exitDy=0;entryX=0.5;entryY=0;entryDx=0;entryDy=0;" parent="1" source="15" target="14" edge="1">
                    <mxGeometry width="50" height="50" relative="1" as="geometry">
                        <mxPoint x="300" y="385" as="sourcePoint"/>
                        <mxPoint x="460" y="345" as="targetPoint"/>
                        <Array as="points">
                            <mxPoint x="435" y="345"/>
                        </Array>
                    </mxGeometry>
                </mxCell>
                <mxCell id="44" value="flight details" style="text;html=1;align=center;verticalAlign=middle;resizable=0;points=[];autosize=1;strokeColor=none;fillColor=none;fontSize=12;" parent="1" vertex="1">
                    <mxGeometry x="215" y="310" width="90" height="30" as="geometry"/>
                </mxCell>
                <mxCell id="45" value="" style="endArrow=classic;startArrow=classic;html=1;fontSize=12;entryX=0.5;entryY=1;entryDx=0;entryDy=0;exitX=0.5;exitY=0;exitDx=0;exitDy=0;" parent="1" source="19" target="14" edge="1">
                    <mxGeometry width="50" height="50" relative="1" as="geometry">
                        <mxPoint x="410" y="555" as="sourcePoint"/>
                        <mxPoint x="460" y="505" as="targetPoint"/>
                    </mxGeometry>
                </mxCell>
                <mxCell id="46" value="Plane details" style="text;html=1;align=center;verticalAlign=middle;resizable=0;points=[];autosize=1;strokeColor=none;fillColor=none;fontSize=12;" parent="1" vertex="1">
                    <mxGeometry x="440" y="495" width="90" height="30" as="geometry"/>
                </mxCell>
                <mxCell id="47" value="Overall Report" style="text;html=1;align=center;verticalAlign=middle;resizable=0;points=[];autosize=1;strokeColor=none;fillColor=none;fontSize=12;" parent="1" vertex="1">
                    <mxGeometry x="330" y="615" width="100" height="30" as="geometry"/>
                </mxCell>
                <mxCell id="50" value="" style="endArrow=classic;html=1;fontSize=18;exitX=0;exitY=0.5;exitDx=0;exitDy=0;entryX=0.75;entryY=1;entryDx=0;entryDy=0;" parent="1" source="14" target="15" edge="1">
                    <mxGeometry width="50" height="50" relative="1" as="geometry">
                        <mxPoint x="230" y="535" as="sourcePoint"/>
                        <mxPoint x="360" y="375" as="targetPoint"/>
                    </mxGeometry>
                </mxCell>
                <mxCell id="51" value="Ticker confirmation" style="text;html=1;align=center;verticalAlign=middle;resizable=0;points=[];autosize=1;strokeColor=none;fillColor=none;fontSize=18;rotation=20;" parent="1" vertex="1">
                    <mxGeometry x="190" y="395" width="170" height="40" as="geometry"/>
                </mxCell>
                <mxCell id="70K7XfDIF0psGtKScyR6-53" value="" style="endArrow=classic;html=1;entryX=0;entryY=1;entryDx=0;entryDy=0;" parent="1" target="14" edge="1">
                    <mxGeometry width="50" height="50" relative="1" as="geometry">
                        <mxPoint x="160" y="360" as="sourcePoint"/>
                        <mxPoint x="190" y="385" as="targetPoint"/>
                        <Array as="points">
                            <mxPoint x="160" y="470"/>
                        </Array>
                    </mxGeometry>
                </mxCell>
            </root>
        </mxGraphModel>
    </diagram>
    <diagram id="Qm8Rzjkq1NDL4wa2BlXU" name="DFD-1">
        <mxGraphModel dx="154" dy="1094" grid="1" gridSize="10" guides="1" tooltips="1" connect="1" arrows="1" fold="1" page="1" pageScale="1" pageWidth="850" pageHeight="1100" math="0" shadow="0">
            <root>
                <mxCell id="0"/>
                <mxCell id="1" parent="0"/>
                <mxCell id="7iVtQEYvk9EgAWyxtu6R-1" value="&lt;span style=&quot;font-size: 18px;&quot;&gt;Registration&lt;br&gt;new member&lt;br&gt;&lt;/span&gt;" style="shape=ellipse;html=1;dashed=0;whitespace=wrap;aspect=fixed;perimeter=ellipsePerimeter;fontSize=12;" parent="1" vertex="1">
                    <mxGeometry x="1250" y="30" width="120" height="120" as="geometry"/>
                </mxCell>
                <mxCell id="7iVtQEYvk9EgAWyxtu6R-2" value="&lt;font style=&quot;font-size: 18px;&quot;&gt;User&lt;/font&gt;" style="whiteSpace=wrap;html=1;fontSize=18;dashed=0;" parent="1" vertex="1">
                    <mxGeometry x="940" y="68.75" width="95" height="42.5" as="geometry"/>
                </mxCell>
                <mxCell id="7iVtQEYvk9EgAWyxtu6R-3" value="&lt;font style=&quot;font-size: 18px;&quot;&gt;Admin&lt;/font&gt;" style="whiteSpace=wrap;html=1;fontSize=18;dashed=0;" parent="1" vertex="1">
                    <mxGeometry x="1050" y="451.25" width="105" height="45" as="geometry"/>
                </mxCell>
                <mxCell id="yeOpANtN_0S5Elx46RXv-3" value="" style="endArrow=classic;startArrow=classic;html=1;fontSize=18;exitX=-0.028;exitY=1;exitDx=0;exitDy=0;exitPerimeter=0;" parent="1" source="yeOpANtN_0S5Elx46RXv-4" edge="1">
                    <mxGeometry width="50" height="50" relative="1" as="geometry">
                        <mxPoint x="1030" y="86.75" as="sourcePoint"/>
                        <mxPoint x="1250" y="88.75" as="targetPoint"/>
                    </mxGeometry>
                </mxCell>
                <mxCell id="yeOpANtN_0S5Elx46RXv-4" value="Reg number" style="text;html=1;align=center;verticalAlign=middle;resizable=0;points=[];autosize=1;strokeColor=none;fillColor=none;fontSize=18;" parent="1" vertex="1">
                    <mxGeometry x="1035" y="48.75" width="120" height="40" as="geometry"/>
                </mxCell>
                <mxCell id="yeOpANtN_0S5Elx46RXv-5" value="User details" style="text;html=1;align=center;verticalAlign=middle;resizable=0;points=[];autosize=1;strokeColor=none;fillColor=none;fontSize=18;" parent="1" vertex="1">
                    <mxGeometry x="1120" y="98.75" width="120" height="40" as="geometry"/>
                </mxCell>
                <mxCell id="yeOpANtN_0S5Elx46RXv-7" value="" style="endArrow=classic;html=1;fontSize=18;" parent="1" target="yeOpANtN_0S5Elx46RXv-8" edge="1">
                    <mxGeometry width="50" height="50" relative="1" as="geometry">
                        <mxPoint x="1370" y="93.75" as="sourcePoint"/>
                        <mxPoint x="1510" y="93.75" as="targetPoint"/>
                    </mxGeometry>
                </mxCell>
                <mxCell id="yeOpANtN_0S5Elx46RXv-8" value="D1 Member DB" style="html=1;dashed=0;whitespace=wrap;shape=mxgraph.dfd.dataStoreID;align=left;spacingLeft=3;points=[[0,0],[0.5,0],[1,0],[0,0.5],[1,0.5],[0,1],[0.5,1],[1,1]];fontSize=18;" parent="1" vertex="1">
                    <mxGeometry x="1460" y="78.75" width="180" height="30" as="geometry"/>
                </mxCell>
                <mxCell id="yeOpANtN_0S5Elx46RXv-10" value="&lt;span style=&quot;font-size: 18px;&quot;&gt;Issue Ticket&lt;br&gt;&lt;/span&gt;" style="shape=ellipse;html=1;dashed=0;whitespace=wrap;aspect=fixed;perimeter=ellipsePerimeter;fontSize=12;" parent="1" vertex="1">
                    <mxGeometry x="1260" y="251.25" width="120" height="120" as="geometry"/>
                </mxCell>
                <mxCell id="yeOpANtN_0S5Elx46RXv-11" value="&lt;div style=&quot;text-align: center;&quot;&gt;&lt;span style=&quot;background-color: initial;&quot;&gt;D2&lt;/span&gt;&lt;span style=&quot;background-color: initial; white-space: pre;&quot;&gt;&#9;&lt;/span&gt;&lt;span style=&quot;background-color: initial;&quot;&gt;Flight DB&lt;/span&gt;&lt;/div&gt;" style="html=1;dashed=0;whitespace=wrap;shape=mxgraph.dfd.dataStoreID;align=left;spacingLeft=3;points=[[0,0],[0.5,0],[1,0],[0,0.5],[1,0.5],[0,1],[0.5,1],[1,1]];fontSize=18;" parent="1" vertex="1">
                    <mxGeometry x="1420" y="451.25" width="180" height="30" as="geometry"/>
                </mxCell>
                <mxCell id="yeOpANtN_0S5Elx46RXv-12" value="" style="endArrow=classic;html=1;fontSize=18;exitX=1;exitY=0.5;exitDx=0;exitDy=0;entryX=0.5;entryY=0;entryDx=0;entryDy=0;" parent="1" source="yeOpANtN_0S5Elx46RXv-10" target="yeOpANtN_0S5Elx46RXv-11" edge="1">
                    <mxGeometry width="50" height="50" relative="1" as="geometry">
                        <mxPoint x="1460" y="328.75" as="sourcePoint"/>
                        <mxPoint x="1540" y="420" as="targetPoint"/>
                        <Array as="points">
                            <mxPoint x="1450" y="308.75"/>
                            <mxPoint x="1510" y="309"/>
                        </Array>
                    </mxGeometry>
                </mxCell>
                <mxCell id="ZOc1o3YfUny-VHYM6U4h-1" value="&lt;span style=&quot;font-size: 18px;&quot;&gt;Add Planes&lt;br&gt;&lt;/span&gt;" style="shape=ellipse;html=1;dashed=0;whitespace=wrap;aspect=fixed;perimeter=ellipsePerimeter;fontSize=12;" parent="1" vertex="1">
                    <mxGeometry x="1450" y="568.75" width="120" height="120" as="geometry"/>
                </mxCell>
                <mxCell id="ZOc1o3YfUny-VHYM6U4h-3" value="" style="endArrow=classic;html=1;fontSize=18;exitX=0.5;exitY=0;exitDx=0;exitDy=0;entryX=0.5;entryY=1;entryDx=0;entryDy=0;" parent="1" source="ZOc1o3YfUny-VHYM6U4h-1" target="yeOpANtN_0S5Elx46RXv-11" edge="1">
                    <mxGeometry width="50" height="50" relative="1" as="geometry">
                        <mxPoint x="1390" y="338.75" as="sourcePoint"/>
                        <mxPoint x="1540" y="460" as="targetPoint"/>
                        <Array as="points"/>
                    </mxGeometry>
                </mxCell>
                <mxCell id="ZOc1o3YfUny-VHYM6U4h-4" value="" style="endArrow=classic;startArrow=classic;html=1;fontSize=18;entryX=0;entryY=0.5;entryDx=0;entryDy=0;" parent="1" source="7iVtQEYvk9EgAWyxtu6R-3" target="yeOpANtN_0S5Elx46RXv-11" edge="1">
                    <mxGeometry width="50" height="50" relative="1" as="geometry">
                        <mxPoint x="1390" y="568.75" as="sourcePoint"/>
                        <mxPoint x="1450" y="473.75" as="targetPoint"/>
                        <Array as="points"/>
                    </mxGeometry>
                </mxCell>
                <mxCell id="ZOc1o3YfUny-VHYM6U4h-5" value="Reports" style="text;html=1;align=center;verticalAlign=middle;resizable=0;points=[];autosize=1;strokeColor=none;fillColor=none;fontSize=18;" parent="1" vertex="1">
                    <mxGeometry x="1160" y="428.75" width="90" height="40" as="geometry"/>
                </mxCell>
                <mxCell id="ZOc1o3YfUny-VHYM6U4h-6" value="Flight details" style="text;html=1;align=center;verticalAlign=middle;resizable=0;points=[];autosize=1;strokeColor=none;fillColor=none;fontSize=18;" parent="1" vertex="1">
                    <mxGeometry x="1330" y="488.75" width="120" height="40" as="geometry"/>
                </mxCell>
                <mxCell id="ZOc1o3YfUny-VHYM6U4h-7" value="" style="endArrow=classic;html=1;fontSize=18;exitX=0.108;exitY=1.108;exitDx=0;exitDy=0;exitPerimeter=0;entryX=0.5;entryY=0;entryDx=0;entryDy=0;" parent="1" source="yeOpANtN_0S5Elx46RXv-8" target="yeOpANtN_0S5Elx46RXv-10" edge="1">
                    <mxGeometry width="50" height="50" relative="1" as="geometry">
                        <mxPoint x="1430" y="218.75" as="sourcePoint"/>
                        <mxPoint x="1480" y="168.75" as="targetPoint"/>
                    </mxGeometry>
                </mxCell>
                <mxCell id="ZOc1o3YfUny-VHYM6U4h-8" value="Member details" style="text;html=1;align=center;verticalAlign=middle;resizable=0;points=[];autosize=1;strokeColor=none;fillColor=none;fontSize=18;rotation=-40;" parent="1" vertex="1">
                    <mxGeometry x="1350" y="168.75" width="150" height="40" as="geometry"/>
                </mxCell>
                <mxCell id="dKsSVmKkDQScTeasnnWZ-1" value="&lt;div style=&quot;text-align: center;&quot;&gt;D3 Payement&lt;/div&gt;" style="html=1;dashed=0;whitespace=wrap;shape=mxgraph.dfd.dataStoreID;align=left;spacingLeft=3;points=[[0,0],[0.5,0],[1,0],[0,0.5],[1,0.5],[0,1],[0.5,1],[1,1]];fontSize=18;" parent="1" vertex="1">
                    <mxGeometry x="930" y="398.75" width="180" height="30" as="geometry"/>
                </mxCell>
                <mxCell id="dKsSVmKkDQScTeasnnWZ-2" value="" style="endArrow=classic;html=1;fontSize=18;entryX=0.5;entryY=0;entryDx=0;entryDy=0;startArrow=none;" parent="1" source="0XTnDXk6vb2L3O5hA9vF-1" target="dKsSVmKkDQScTeasnnWZ-1" edge="1">
                    <mxGeometry width="50" height="50" relative="1" as="geometry">
                        <mxPoint x="995" y="308.75" as="sourcePoint"/>
                        <mxPoint x="625" y="268.75" as="targetPoint"/>
                    </mxGeometry>
                </mxCell>
                <mxCell id="dKsSVmKkDQScTeasnnWZ-4" value="" style="endArrow=classic;startArrow=classic;html=1;fontSize=18;exitX=1;exitY=0.5;exitDx=0;exitDy=0;entryX=0;entryY=0.5;entryDx=0;entryDy=0;" parent="1" source="0XTnDXk6vb2L3O5hA9vF-1" target="yeOpANtN_0S5Elx46RXv-10" edge="1">
                    <mxGeometry width="50" height="50" relative="1" as="geometry">
                        <mxPoint x="1125" y="308.75" as="sourcePoint"/>
                        <mxPoint x="1155" y="168.75" as="targetPoint"/>
                    </mxGeometry>
                </mxCell>
                <mxCell id="dKsSVmKkDQScTeasnnWZ-5" value="Request&lt;br&gt;payement" style="text;html=1;align=center;verticalAlign=middle;resizable=0;points=[];autosize=1;strokeColor=none;fillColor=none;fontSize=18;" parent="1" vertex="1">
                    <mxGeometry x="1030" y="311.25" width="100" height="60" as="geometry"/>
                </mxCell>
                <mxCell id="dKsSVmKkDQScTeasnnWZ-6" value="" style="endArrow=none;html=1;fontSize=18;entryX=1;entryY=0.5;entryDx=0;entryDy=0;" parent="1" target="0XTnDXk6vb2L3O5hA9vF-1" edge="1">
                    <mxGeometry width="50" height="50" relative="1" as="geometry">
                        <mxPoint x="995" y="308.75" as="sourcePoint"/>
                        <mxPoint x="840" y="308.75" as="targetPoint"/>
                    </mxGeometry>
                </mxCell>
                <mxCell id="0XTnDXk6vb2L3O5hA9vF-1" value="&lt;font style=&quot;font-size: 18px;&quot;&gt;Payement&amp;nbsp;&lt;/font&gt;" style="shape=ellipse;html=1;dashed=0;whitespace=wrap;aspect=fixed;perimeter=ellipsePerimeter;" parent="1" vertex="1">
                    <mxGeometry x="910" y="246.25" width="125" height="125" as="geometry"/>
                </mxCell>
                <mxCell id="dKsSVmKkDQScTeasnnWZ-7" value="Payment&lt;br&gt;confirmation" style="text;html=1;align=center;verticalAlign=middle;resizable=0;points=[];autosize=1;strokeColor=none;fillColor=none;fontSize=18;" parent="1" vertex="1">
                    <mxGeometry x="1130" y="246.25" width="120" height="60" as="geometry"/>
                </mxCell>
                <mxCell id="dKsSVmKkDQScTeasnnWZ-8" value="" style="endArrow=classic;html=1;fontSize=18;exitX=0;exitY=0;exitDx=0;exitDy=0;entryX=0.5;entryY=1;entryDx=0;entryDy=0;" parent="1" source="yeOpANtN_0S5Elx46RXv-10" target="7iVtQEYvk9EgAWyxtu6R-2" edge="1">
                    <mxGeometry width="50" height="50" relative="1" as="geometry">
                        <mxPoint x="1090" y="238.75" as="sourcePoint"/>
                        <mxPoint x="1240" y="188.75" as="targetPoint"/>
                        <Array as="points">
                            <mxPoint x="990" y="178.75"/>
                        </Array>
                    </mxGeometry>
                </mxCell>
                <mxCell id="dKsSVmKkDQScTeasnnWZ-10" value="Ticket&lt;br&gt;confirmation" style="text;html=1;align=center;verticalAlign=middle;resizable=0;points=[];autosize=1;strokeColor=none;fillColor=none;fontSize=18;" parent="1" vertex="1">
                    <mxGeometry x="870" y="138.75" width="120" height="60" as="geometry"/>
                </mxCell>
            </root>
        </mxGraphModel>
    </diagram>
    <diagram id="yCafUfYD2rOjbzoDw0kC" name="Class diag">
        <mxGraphModel dx="1356" dy="947" grid="1" gridSize="10" guides="1" tooltips="1" connect="1" arrows="1" fold="1" page="1" pageScale="1" pageWidth="850" pageHeight="1100" math="0" shadow="0">
            <root>
                <mxCell id="0"/>
                <mxCell id="1" parent="0"/>
                <mxCell id="25k-CGs_IIrr4NitpbbD-15" style="edgeStyle=none;html=1;exitX=1;exitY=0.25;exitDx=0;exitDy=0;entryX=0;entryY=0.5;entryDx=0;entryDy=0;" parent="1" source="SUb1LI8icTIdYtTR9GX4-1" target="Nt-OaBa_n5I9dpmyhNza-3" edge="1">
                    <mxGeometry relative="1" as="geometry"/>
                </mxCell>
                <mxCell id="SUb1LI8icTIdYtTR9GX4-1" value="Air reservation system" style="swimlane;fontStyle=0;align=center;verticalAlign=top;childLayout=stackLayout;horizontal=1;startSize=55;horizontalStack=0;resizeParent=1;resizeParentMax=0;resizeLast=0;collapsible=0;marginBottom=0;html=1;" parent="1" vertex="1">
                    <mxGeometry x="130" y="489" width="140" height="191" as="geometry"/>
                </mxCell>
                <mxCell id="SUb1LI8icTIdYtTR9GX4-2" value="attributes" style="text;html=1;strokeColor=none;fillColor=none;align=center;verticalAlign=middle;spacingLeft=4;spacingRight=4;overflow=hidden;rotatable=0;points=[[0,0.5],[1,0.5]];portConstraint=eastwest;" parent="SUb1LI8icTIdYtTR9GX4-1" vertex="1">
                    <mxGeometry y="55" width="140" height="20" as="geometry"/>
                </mxCell>
                <mxCell id="SUb1LI8icTIdYtTR9GX4-3" value="+ Registration num" style="text;html=1;strokeColor=none;fillColor=none;align=left;verticalAlign=middle;spacingLeft=4;spacingRight=4;overflow=hidden;rotatable=0;points=[[0,0.5],[1,0.5]];portConstraint=eastwest;" parent="SUb1LI8icTIdYtTR9GX4-1" vertex="1">
                    <mxGeometry y="75" width="140" height="20" as="geometry"/>
                </mxCell>
                <mxCell id="SUb1LI8icTIdYtTR9GX4-4" value="+ Transaction" style="text;html=1;strokeColor=none;fillColor=none;align=left;verticalAlign=middle;spacingLeft=4;spacingRight=4;overflow=hidden;rotatable=0;points=[[0,0.5],[1,0.5]];portConstraint=eastwest;" parent="SUb1LI8icTIdYtTR9GX4-1" vertex="1">
                    <mxGeometry y="95" width="140" height="20" as="geometry"/>
                </mxCell>
                <mxCell id="Nt-OaBa_n5I9dpmyhNza-1" value="+ Ticket no." style="text;html=1;strokeColor=none;fillColor=none;align=left;verticalAlign=middle;spacingLeft=4;spacingRight=4;overflow=hidden;rotatable=0;points=[[0,0.5],[1,0.5]];portConstraint=eastwest;" parent="SUb1LI8icTIdYtTR9GX4-1" vertex="1">
                    <mxGeometry y="115" width="140" height="20" as="geometry"/>
                </mxCell>
                <mxCell id="SUb1LI8icTIdYtTR9GX4-5" value="..." style="text;html=1;strokeColor=none;fillColor=none;align=left;verticalAlign=middle;spacingLeft=4;spacingRight=4;overflow=hidden;rotatable=0;points=[[0,0.5],[1,0.5]];portConstraint=eastwest;" parent="SUb1LI8icTIdYtTR9GX4-1" vertex="1">
                    <mxGeometry y="135" width="140" height="15" as="geometry"/>
                </mxCell>
                <mxCell id="SUb1LI8icTIdYtTR9GX4-6" value="" style="line;strokeWidth=1;fillColor=none;align=left;verticalAlign=middle;spacingTop=-1;spacingLeft=3;spacingRight=3;rotatable=0;labelPosition=right;points=[];portConstraint=eastwest;" parent="SUb1LI8icTIdYtTR9GX4-1" vertex="1">
                    <mxGeometry y="150" width="140" height="8" as="geometry"/>
                </mxCell>
                <mxCell id="SUb1LI8icTIdYtTR9GX4-7" value="getUser()&lt;br&gt;updateTransaction()" style="text;html=1;strokeColor=none;fillColor=none;align=left;verticalAlign=middle;spacingLeft=4;spacingRight=4;overflow=hidden;rotatable=0;points=[[0,0.5],[1,0.5]];portConstraint=eastwest;" parent="SUb1LI8icTIdYtTR9GX4-1" vertex="1">
                    <mxGeometry y="158" width="140" height="33" as="geometry"/>
                </mxCell>
                <mxCell id="Nt-OaBa_n5I9dpmyhNza-2" value="User" style="swimlane;fontStyle=0;align=center;verticalAlign=top;childLayout=stackLayout;horizontal=1;startSize=55;horizontalStack=0;resizeParent=1;resizeParentMax=0;resizeLast=0;collapsible=0;marginBottom=0;html=1;" parent="1" vertex="1">
                    <mxGeometry x="500" y="470" width="140" height="210" as="geometry"/>
                </mxCell>
                <mxCell id="Nt-OaBa_n5I9dpmyhNza-3" value="attributes" style="text;html=1;strokeColor=none;fillColor=none;align=center;verticalAlign=middle;spacingLeft=4;spacingRight=4;overflow=hidden;rotatable=0;points=[[0,0.5],[1,0.5]];portConstraint=eastwest;" parent="Nt-OaBa_n5I9dpmyhNza-2" vertex="1">
                    <mxGeometry y="55" width="140" height="20" as="geometry"/>
                </mxCell>
                <mxCell id="Nt-OaBa_n5I9dpmyhNza-4" value="+ Details&lt;br&gt;# login token" style="text;html=1;strokeColor=none;fillColor=none;align=left;verticalAlign=middle;spacingLeft=4;spacingRight=4;overflow=hidden;rotatable=0;points=[[0,0.5],[1,0.5]];portConstraint=eastwest;" parent="Nt-OaBa_n5I9dpmyhNza-2" vertex="1">
                    <mxGeometry y="75" width="140" height="45" as="geometry"/>
                </mxCell>
                <mxCell id="Nt-OaBa_n5I9dpmyhNza-5" value="..." style="text;html=1;strokeColor=none;fillColor=none;align=left;verticalAlign=middle;spacingLeft=4;spacingRight=4;overflow=hidden;rotatable=0;points=[[0,0.5],[1,0.5]];portConstraint=eastwest;" parent="Nt-OaBa_n5I9dpmyhNza-2" vertex="1">
                    <mxGeometry y="120" width="140" height="15" as="geometry"/>
                </mxCell>
                <mxCell id="Nt-OaBa_n5I9dpmyhNza-6" value="" style="line;strokeWidth=1;fillColor=none;align=left;verticalAlign=middle;spacingTop=-1;spacingLeft=3;spacingRight=3;rotatable=0;labelPosition=right;points=[];portConstraint=eastwest;" parent="Nt-OaBa_n5I9dpmyhNza-2" vertex="1">
                    <mxGeometry y="135" width="140" height="8" as="geometry"/>
                </mxCell>
                <mxCell id="Nt-OaBa_n5I9dpmyhNza-7" value="operations" style="text;html=1;strokeColor=none;fillColor=none;align=center;verticalAlign=middle;spacingLeft=4;spacingRight=4;overflow=hidden;rotatable=0;points=[[0,0.5],[1,0.5]];portConstraint=eastwest;" parent="Nt-OaBa_n5I9dpmyhNza-2" vertex="1">
                    <mxGeometry y="143" width="140" height="20" as="geometry"/>
                </mxCell>
                <mxCell id="Nt-OaBa_n5I9dpmyhNza-8" value="updateTransaction()&lt;br&gt;getPlaneTicket()" style="text;html=1;strokeColor=none;fillColor=none;align=left;verticalAlign=middle;spacingLeft=4;spacingRight=4;overflow=hidden;rotatable=0;points=[[0,0.5],[1,0.5]];portConstraint=eastwest;" parent="Nt-OaBa_n5I9dpmyhNza-2" vertex="1">
                    <mxGeometry y="163" width="140" height="47" as="geometry"/>
                </mxCell>
                <mxCell id="25k-CGs_IIrr4NitpbbD-16" style="edgeStyle=none;html=1;exitX=0.5;exitY=0;exitDx=0;exitDy=0;" parent="1" source="25k-CGs_IIrr4NitpbbD-1" target="SUb1LI8icTIdYtTR9GX4-7" edge="1">
                    <mxGeometry relative="1" as="geometry"/>
                </mxCell>
                <mxCell id="25k-CGs_IIrr4NitpbbD-1" value="Employee" style="swimlane;fontStyle=0;align=center;verticalAlign=top;childLayout=stackLayout;horizontal=1;startSize=55;horizontalStack=0;resizeParent=1;resizeParentMax=0;resizeLast=0;collapsible=0;marginBottom=0;html=1;" parent="1" vertex="1">
                    <mxGeometry x="130" y="740" width="140" height="210" as="geometry"/>
                </mxCell>
                <mxCell id="25k-CGs_IIrr4NitpbbD-2" value="attributes" style="text;html=1;strokeColor=none;fillColor=none;align=center;verticalAlign=middle;spacingLeft=4;spacingRight=4;overflow=hidden;rotatable=0;points=[[0,0.5],[1,0.5]];portConstraint=eastwest;" parent="25k-CGs_IIrr4NitpbbD-1" vertex="1">
                    <mxGeometry y="55" width="140" height="20" as="geometry"/>
                </mxCell>
                <mxCell id="25k-CGs_IIrr4NitpbbD-3" value="+ Details&lt;br&gt;# sa;ary" style="text;html=1;strokeColor=none;fillColor=none;align=left;verticalAlign=middle;spacingLeft=4;spacingRight=4;overflow=hidden;rotatable=0;points=[[0,0.5],[1,0.5]];portConstraint=eastwest;" parent="25k-CGs_IIrr4NitpbbD-1" vertex="1">
                    <mxGeometry y="75" width="140" height="45" as="geometry"/>
                </mxCell>
                <mxCell id="25k-CGs_IIrr4NitpbbD-4" value="..." style="text;html=1;strokeColor=none;fillColor=none;align=left;verticalAlign=middle;spacingLeft=4;spacingRight=4;overflow=hidden;rotatable=0;points=[[0,0.5],[1,0.5]];portConstraint=eastwest;" parent="25k-CGs_IIrr4NitpbbD-1" vertex="1">
                    <mxGeometry y="120" width="140" height="20" as="geometry"/>
                </mxCell>
                <mxCell id="25k-CGs_IIrr4NitpbbD-5" value="" style="line;strokeWidth=1;fillColor=none;align=left;verticalAlign=middle;spacingTop=-1;spacingLeft=3;spacingRight=3;rotatable=0;labelPosition=right;points=[];portConstraint=eastwest;" parent="25k-CGs_IIrr4NitpbbD-1" vertex="1">
                    <mxGeometry y="140" width="140" height="8" as="geometry"/>
                </mxCell>
                <mxCell id="25k-CGs_IIrr4NitpbbD-6" value="operations" style="text;html=1;strokeColor=none;fillColor=none;align=center;verticalAlign=middle;spacingLeft=4;spacingRight=4;overflow=hidden;rotatable=0;points=[[0,0.5],[1,0.5]];portConstraint=eastwest;" parent="25k-CGs_IIrr4NitpbbD-1" vertex="1">
                    <mxGeometry y="148" width="140" height="20" as="geometry"/>
                </mxCell>
                <mxCell id="25k-CGs_IIrr4NitpbbD-7" value="updateTransaction()&lt;br&gt;updatePlanes()" style="text;html=1;strokeColor=none;fillColor=none;align=left;verticalAlign=middle;spacingLeft=4;spacingRight=4;overflow=hidden;rotatable=0;points=[[0,0.5],[1,0.5]];portConstraint=eastwest;" parent="25k-CGs_IIrr4NitpbbD-1" vertex="1">
                    <mxGeometry y="168" width="140" height="42" as="geometry"/>
                </mxCell>
                <mxCell id="25k-CGs_IIrr4NitpbbD-8" value="Planes" style="swimlane;fontStyle=0;align=center;verticalAlign=top;childLayout=stackLayout;horizontal=1;startSize=55;horizontalStack=0;resizeParent=1;resizeParentMax=0;resizeLast=0;collapsible=0;marginBottom=0;html=1;" parent="1" vertex="1">
                    <mxGeometry x="480" y="740" width="140" height="210" as="geometry"/>
                </mxCell>
                <mxCell id="25k-CGs_IIrr4NitpbbD-9" value="attributes" style="text;html=1;strokeColor=none;fillColor=none;align=center;verticalAlign=middle;spacingLeft=4;spacingRight=4;overflow=hidden;rotatable=0;points=[[0,0.5],[1,0.5]];portConstraint=eastwest;" parent="25k-CGs_IIrr4NitpbbD-8" vertex="1">
                    <mxGeometry y="55" width="140" height="20" as="geometry"/>
                </mxCell>
                <mxCell id="25k-CGs_IIrr4NitpbbD-10" value="+ Details&lt;br&gt;+ Plane no.&lt;br&gt;+ Booked seats" style="text;html=1;strokeColor=none;fillColor=none;align=left;verticalAlign=middle;spacingLeft=4;spacingRight=4;overflow=hidden;rotatable=0;points=[[0,0.5],[1,0.5]];portConstraint=eastwest;" parent="25k-CGs_IIrr4NitpbbD-8" vertex="1">
                    <mxGeometry y="75" width="140" height="45" as="geometry"/>
                </mxCell>
                <mxCell id="25k-CGs_IIrr4NitpbbD-11" value="..." style="text;html=1;strokeColor=none;fillColor=none;align=left;verticalAlign=middle;spacingLeft=4;spacingRight=4;overflow=hidden;rotatable=0;points=[[0,0.5],[1,0.5]];portConstraint=eastwest;" parent="25k-CGs_IIrr4NitpbbD-8" vertex="1">
                    <mxGeometry y="120" width="140" height="20" as="geometry"/>
                </mxCell>
                <mxCell id="25k-CGs_IIrr4NitpbbD-12" value="" style="line;strokeWidth=1;fillColor=none;align=left;verticalAlign=middle;spacingTop=-1;spacingLeft=3;spacingRight=3;rotatable=0;labelPosition=right;points=[];portConstraint=eastwest;" parent="25k-CGs_IIrr4NitpbbD-8" vertex="1">
                    <mxGeometry y="140" width="140" height="8" as="geometry"/>
                </mxCell>
                <mxCell id="25k-CGs_IIrr4NitpbbD-13" value="operations" style="text;html=1;strokeColor=none;fillColor=none;align=center;verticalAlign=middle;spacingLeft=4;spacingRight=4;overflow=hidden;rotatable=0;points=[[0,0.5],[1,0.5]];portConstraint=eastwest;" parent="25k-CGs_IIrr4NitpbbD-8" vertex="1">
                    <mxGeometry y="148" width="140" height="20" as="geometry"/>
                </mxCell>
                <mxCell id="25k-CGs_IIrr4NitpbbD-14" value="updateSeat()&lt;br&gt;updatePlane()" style="text;html=1;strokeColor=none;fillColor=none;align=left;verticalAlign=middle;spacingLeft=4;spacingRight=4;overflow=hidden;rotatable=0;points=[[0,0.5],[1,0.5]];portConstraint=eastwest;" parent="25k-CGs_IIrr4NitpbbD-8" vertex="1">
                    <mxGeometry y="168" width="140" height="42" as="geometry"/>
                </mxCell>
                <mxCell id="25k-CGs_IIrr4NitpbbD-17" style="edgeStyle=none;html=1;exitX=1;exitY=0.5;exitDx=0;exitDy=0;" parent="1" source="25k-CGs_IIrr4NitpbbD-3" target="25k-CGs_IIrr4NitpbbD-10" edge="1">
                    <mxGeometry relative="1" as="geometry"/>
                </mxCell>
            </root>
        </mxGraphModel>
    </diagram>
    <diagram id="Thq9iiSdOuXC2sOJJvaX" name="use case">
        <mxGraphModel dx="933" dy="651" grid="1" gridSize="10" guides="1" tooltips="1" connect="1" arrows="1" fold="1" page="1" pageScale="1" pageWidth="850" pageHeight="1100" math="0" shadow="0">
            <root>
                <mxCell id="0"/>
                <mxCell id="1" parent="0"/>
                <mxCell id="NgPBjlegsvdlQLomJ2Pm-1" value="" style="html=1;dashed=0;whitespace=wrap;rotation=90;" parent="1" vertex="1">
                    <mxGeometry x="257.19" y="220.63" width="348.12" height="286.88" as="geometry"/>
                </mxCell>
                <mxCell id="CSUVFUaTN1LNS5qZmXgp-3" style="edgeStyle=none;html=1;exitX=0.5;exitY=0.5;exitDx=0;exitDy=0;exitPerimeter=0;entryX=0;entryY=0.5;entryDx=0;entryDy=0;" parent="1" source="NgPBjlegsvdlQLomJ2Pm-2" target="QSRY59qPD9HkAvYpGPFW-1" edge="1">
                    <mxGeometry relative="1" as="geometry"/>
                </mxCell>
                <mxCell id="CSUVFUaTN1LNS5qZmXgp-4" style="edgeStyle=none;html=1;exitX=0.5;exitY=0.5;exitDx=0;exitDy=0;exitPerimeter=0;entryX=0;entryY=0.5;entryDx=0;entryDy=0;" parent="1" source="NgPBjlegsvdlQLomJ2Pm-2" target="QSRY59qPD9HkAvYpGPFW-2" edge="1">
                    <mxGeometry relative="1" as="geometry"/>
                </mxCell>
                <mxCell id="CSUVFUaTN1LNS5qZmXgp-5" style="edgeStyle=none;html=1;exitX=0.5;exitY=0.5;exitDx=0;exitDy=0;exitPerimeter=0;entryX=0;entryY=0.5;entryDx=0;entryDy=0;" parent="1" source="NgPBjlegsvdlQLomJ2Pm-2" target="BU3kPdGxu4ZdJomm-upN-1" edge="1">
                    <mxGeometry relative="1" as="geometry"/>
                </mxCell>
                <mxCell id="CSUVFUaTN1LNS5qZmXgp-6" style="edgeStyle=none;html=1;exitX=0.5;exitY=0.5;exitDx=0;exitDy=0;exitPerimeter=0;entryX=0.5;entryY=0;entryDx=0;entryDy=0;" parent="1" source="NgPBjlegsvdlQLomJ2Pm-2" target="CSUVFUaTN1LNS5qZmXgp-2" edge="1">
                    <mxGeometry relative="1" as="geometry"/>
                </mxCell>
                <mxCell id="NgPBjlegsvdlQLomJ2Pm-2" value="Employee" style="shape=umlActor;verticalLabelPosition=bottom;verticalAlign=top;html=1;" parent="1" vertex="1">
                    <mxGeometry x="110" y="330" width="30" height="60" as="geometry"/>
                </mxCell>
                <mxCell id="CSUVFUaTN1LNS5qZmXgp-7" style="edgeStyle=none;html=1;exitX=0.5;exitY=0.5;exitDx=0;exitDy=0;exitPerimeter=0;entryX=1;entryY=0.5;entryDx=0;entryDy=0;" parent="1" source="NgPBjlegsvdlQLomJ2Pm-3" target="QSRY59qPD9HkAvYpGPFW-1" edge="1">
                    <mxGeometry relative="1" as="geometry"/>
                </mxCell>
                <mxCell id="CSUVFUaTN1LNS5qZmXgp-8" style="edgeStyle=none;html=1;exitX=0.5;exitY=0.5;exitDx=0;exitDy=0;exitPerimeter=0;" parent="1" source="NgPBjlegsvdlQLomJ2Pm-3" target="BU3kPdGxu4ZdJomm-upN-1" edge="1">
                    <mxGeometry relative="1" as="geometry"/>
                </mxCell>
                <mxCell id="CSUVFUaTN1LNS5qZmXgp-9" style="edgeStyle=none;html=1;exitX=0.5;exitY=0.5;exitDx=0;exitDy=0;exitPerimeter=0;entryX=1;entryY=0.5;entryDx=0;entryDy=0;" parent="1" source="NgPBjlegsvdlQLomJ2Pm-3" target="BU3kPdGxu4ZdJomm-upN-2" edge="1">
                    <mxGeometry relative="1" as="geometry"/>
                </mxCell>
                <mxCell id="NgPBjlegsvdlQLomJ2Pm-3" value="User" style="shape=umlActor;verticalLabelPosition=bottom;verticalAlign=top;html=1;" parent="1" vertex="1">
                    <mxGeometry x="690" y="330" width="30" height="60" as="geometry"/>
                </mxCell>
                <mxCell id="QSRY59qPD9HkAvYpGPFW-1" value="Registration" style="ellipse;whiteSpace=wrap;html=1;" parent="1" vertex="1">
                    <mxGeometry x="378.13" y="240" width="110" height="30" as="geometry"/>
                </mxCell>
                <mxCell id="QSRY59qPD9HkAvYpGPFW-2" value="Plane management" style="ellipse;whiteSpace=wrap;html=1;" parent="1" vertex="1">
                    <mxGeometry x="378.13" y="300" width="110" height="30" as="geometry"/>
                </mxCell>
                <mxCell id="BU3kPdGxu4ZdJomm-upN-1" value="Ticket resertvation" style="ellipse;whiteSpace=wrap;html=1;" parent="1" vertex="1">
                    <mxGeometry x="378.13" y="350" width="110" height="30" as="geometry"/>
                </mxCell>
                <mxCell id="BU3kPdGxu4ZdJomm-upN-2" value="Payement" style="ellipse;whiteSpace=wrap;html=1;" parent="1" vertex="1">
                    <mxGeometry x="378.13" y="410" width="110" height="30" as="geometry"/>
                </mxCell>
                <mxCell id="CSUVFUaTN1LNS5qZmXgp-2" value="Employee management" style="ellipse;whiteSpace=wrap;html=1;" parent="1" vertex="1">
                    <mxGeometry x="378.13" y="470" width="110" height="30" as="geometry"/>
                </mxCell>
            </root>
        </mxGraphModel>
    </diagram>
    <diagram id="kKAltzjNS4kJBiuHvi48" name="ER">
        <mxGraphModel dx="502" dy="547" grid="1" gridSize="10" guides="1" tooltips="1" connect="1" arrows="1" fold="1" page="1" pageScale="1" pageWidth="850" pageHeight="1100" math="0" shadow="0">
            <root>
                <mxCell id="0"/>
                <mxCell id="1" parent="0"/>
                <mxCell id="1j9uFIG9OqZIYXGrylFY-9" style="edgeStyle=none;html=1;exitX=0;exitY=0.5;exitDx=0;exitDy=0;entryX=1;entryY=0.5;entryDx=0;entryDy=0;fontSize=14;" parent="1" source="1j9uFIG9OqZIYXGrylFY-1" target="1j9uFIG9OqZIYXGrylFY-3" edge="1">
                    <mxGeometry relative="1" as="geometry"/>
                </mxCell>
                <mxCell id="1j9uFIG9OqZIYXGrylFY-10" style="edgeStyle=none;html=1;exitX=0;exitY=0;exitDx=0;exitDy=0;entryX=1;entryY=0.5;entryDx=0;entryDy=0;fontSize=14;" parent="1" source="1j9uFIG9OqZIYXGrylFY-1" target="1j9uFIG9OqZIYXGrylFY-2" edge="1">
                    <mxGeometry relative="1" as="geometry"/>
                </mxCell>
                <mxCell id="1j9uFIG9OqZIYXGrylFY-11" style="edgeStyle=none;html=1;exitX=0.5;exitY=1;exitDx=0;exitDy=0;entryX=0.5;entryY=0;entryDx=0;entryDy=0;fontSize=14;" parent="1" source="1j9uFIG9OqZIYXGrylFY-1" target="1j9uFIG9OqZIYXGrylFY-7" edge="1">
                    <mxGeometry relative="1" as="geometry"/>
                </mxCell>
                <mxCell id="JCtmZdt_2WdeK-rqbrRk-1" style="edgeStyle=none;html=1;exitX=1;exitY=0.25;exitDx=0;exitDy=0;entryX=0;entryY=0.5;entryDx=0;entryDy=0;fontSize=14;" parent="1" source="1j9uFIG9OqZIYXGrylFY-1" target="1j9uFIG9OqZIYXGrylFY-13" edge="1">
                    <mxGeometry relative="1" as="geometry"/>
                </mxCell>
                <mxCell id="1j9uFIG9OqZIYXGrylFY-1" value="&lt;font style=&quot;font-size: 14px;&quot;&gt;Member&lt;/font&gt;" style="html=1;dashed=0;whitespace=wrap;" parent="1" vertex="1">
                    <mxGeometry x="160" y="510" width="110" height="30" as="geometry"/>
                </mxCell>
                <mxCell id="1j9uFIG9OqZIYXGrylFY-2" value="password" style="shape=ellipse;html=1;dashed=0;whitespace=wrap;perimeter=ellipsePerimeter;fontSize=14;" parent="1" vertex="1">
                    <mxGeometry x="30" y="450" width="100" height="30" as="geometry"/>
                </mxCell>
                <mxCell id="1j9uFIG9OqZIYXGrylFY-3" value="username" style="shape=ellipse;html=1;dashed=0;whitespace=wrap;perimeter=ellipsePerimeter;fontSize=14;" parent="1" vertex="1">
                    <mxGeometry x="20" y="550" width="100" height="30" as="geometry"/>
                </mxCell>
                <mxCell id="1j9uFIG9OqZIYXGrylFY-12" style="edgeStyle=none;html=1;exitX=0.5;exitY=1;exitDx=0;exitDy=0;entryX=0.5;entryY=0;entryDx=0;entryDy=0;fontSize=14;" parent="1" source="1j9uFIG9OqZIYXGrylFY-6" target="1j9uFIG9OqZIYXGrylFY-1" edge="1">
                    <mxGeometry relative="1" as="geometry"/>
                </mxCell>
                <mxCell id="1j9uFIG9OqZIYXGrylFY-6" value="first name" style="shape=ellipse;html=1;dashed=0;whitespace=wrap;perimeter=ellipsePerimeter;fontSize=14;" parent="1" vertex="1">
                    <mxGeometry x="165" y="450" width="100" height="30" as="geometry"/>
                </mxCell>
                <mxCell id="1j9uFIG9OqZIYXGrylFY-7" value="last name" style="shape=ellipse;html=1;dashed=0;whitespace=wrap;perimeter=ellipsePerimeter;fontSize=14;" parent="1" vertex="1">
                    <mxGeometry x="165" y="580" width="100" height="30" as="geometry"/>
                </mxCell>
                <mxCell id="1j9uFIG9OqZIYXGrylFY-13" value="Payement" style="shape=rhombus;html=1;dashed=0;whitespace=wrap;perimeter=rhombusPerimeter;fontSize=14;" parent="1" vertex="1">
                    <mxGeometry x="365" y="490" width="85" height="60" as="geometry"/>
                </mxCell>
                <mxCell id="JCtmZdt_2WdeK-rqbrRk-4" style="edgeStyle=none;html=1;exitX=0;exitY=0.5;exitDx=0;exitDy=0;entryX=1;entryY=0.5;entryDx=0;entryDy=0;fontSize=14;" parent="1" source="JCtmZdt_2WdeK-rqbrRk-7" target="1j9uFIG9OqZIYXGrylFY-13" edge="1">
                    <mxGeometry relative="1" as="geometry">
                        <mxPoint x="610" y="565" as="targetPoint"/>
                    </mxGeometry>
                </mxCell>
                <mxCell id="JCtmZdt_2WdeK-rqbrRk-6" style="edgeStyle=none;html=1;exitX=0.5;exitY=1;exitDx=0;exitDy=0;entryX=0.5;entryY=0;entryDx=0;entryDy=0;fontSize=14;" parent="1" source="JCtmZdt_2WdeK-rqbrRk-7" target="JCtmZdt_2WdeK-rqbrRk-11" edge="1">
                    <mxGeometry relative="1" as="geometry"/>
                </mxCell>
                <mxCell id="JCtmZdt_2WdeK-rqbrRk-13" style="edgeStyle=none;html=1;exitX=1;exitY=0.5;exitDx=0;exitDy=0;entryX=1;entryY=0.5;entryDx=0;entryDy=0;fontSize=14;" parent="1" source="JCtmZdt_2WdeK-rqbrRk-7" target="JCtmZdt_2WdeK-rqbrRk-12" edge="1">
                    <mxGeometry relative="1" as="geometry">
                        <Array as="points">
                            <mxPoint x="840" y="520"/>
                            <mxPoint x="840" y="770"/>
                        </Array>
                    </mxGeometry>
                </mxCell>
                <mxCell id="JCtmZdt_2WdeK-rqbrRk-7" value="&lt;span style=&quot;font-size: 14px;&quot;&gt;Ticket_status&lt;/span&gt;" style="html=1;dashed=0;whitespace=wrap;" parent="1" vertex="1">
                    <mxGeometry x="650" y="505" width="110" height="30" as="geometry"/>
                </mxCell>
                <mxCell id="JCtmZdt_2WdeK-rqbrRk-9" style="edgeStyle=none;html=1;exitX=0.5;exitY=1;exitDx=0;exitDy=0;entryX=0.5;entryY=0;entryDx=0;entryDy=0;fontSize=14;" parent="1" source="JCtmZdt_2WdeK-rqbrRk-10" target="JCtmZdt_2WdeK-rqbrRk-7" edge="1">
                    <mxGeometry relative="1" as="geometry"/>
                </mxCell>
                <mxCell id="JCtmZdt_2WdeK-rqbrRk-10" value="Status" style="shape=ellipse;html=1;dashed=0;whitespace=wrap;perimeter=ellipsePerimeter;fontSize=14;" parent="1" vertex="1">
                    <mxGeometry x="655" y="450" width="100" height="30" as="geometry"/>
                </mxCell>
                <mxCell id="JCtmZdt_2WdeK-rqbrRk-11" value="Ticket-id" style="shape=ellipse;html=1;dashed=0;whitespace=wrap;perimeter=ellipsePerimeter;fontSize=14;" parent="1" vertex="1">
                    <mxGeometry x="655" y="580" width="100" height="30" as="geometry"/>
                </mxCell>
                <mxCell id="JCtmZdt_2WdeK-rqbrRk-22" style="edgeStyle=none;html=1;exitX=0;exitY=0.5;exitDx=0;exitDy=0;fontSize=14;" parent="1" source="JCtmZdt_2WdeK-rqbrRk-12" target="JCtmZdt_2WdeK-rqbrRk-17" edge="1">
                    <mxGeometry relative="1" as="geometry"/>
                </mxCell>
                <mxCell id="JCtmZdt_2WdeK-rqbrRk-12" value="Booked" style="shape=rhombus;html=1;dashed=0;whitespace=wrap;perimeter=rhombusPerimeter;fontSize=14;" parent="1" vertex="1">
                    <mxGeometry x="667.5" y="740" width="75" height="60" as="geometry"/>
                </mxCell>
                <mxCell id="JCtmZdt_2WdeK-rqbrRk-14" style="edgeStyle=none;html=1;exitX=0;exitY=0.5;exitDx=0;exitDy=0;fontSize=14;entryX=1;entryY=0.5;entryDx=0;entryDy=0;" parent="1" source="JCtmZdt_2WdeK-rqbrRk-17" target="-y7fs_QI5CVMl4S2N7Ec-1" edge="1">
                    <mxGeometry relative="1" as="geometry">
                        <mxPoint x="250" y="800" as="targetPoint"/>
                    </mxGeometry>
                </mxCell>
                <mxCell id="JCtmZdt_2WdeK-rqbrRk-15" style="edgeStyle=none;html=1;exitX=0;exitY=0;exitDx=0;exitDy=0;entryX=1;entryY=0.5;entryDx=0;entryDy=0;fontSize=14;" parent="1" source="JCtmZdt_2WdeK-rqbrRk-17" target="JCtmZdt_2WdeK-rqbrRk-18" edge="1">
                    <mxGeometry relative="1" as="geometry"/>
                </mxCell>
                <mxCell id="JCtmZdt_2WdeK-rqbrRk-16" style="edgeStyle=none;html=1;exitX=0.5;exitY=1;exitDx=0;exitDy=0;entryX=0.5;entryY=0;entryDx=0;entryDy=0;fontSize=14;" parent="1" source="JCtmZdt_2WdeK-rqbrRk-17" target="JCtmZdt_2WdeK-rqbrRk-21" edge="1">
                    <mxGeometry relative="1" as="geometry"/>
                </mxCell>
                <mxCell id="JCtmZdt_2WdeK-rqbrRk-17" value="&lt;font style=&quot;font-size: 14px;&quot;&gt;Flight&lt;/font&gt;" style="html=1;dashed=0;whitespace=wrap;" parent="1" vertex="1">
                    <mxGeometry x="300" y="750" width="110" height="30" as="geometry"/>
                </mxCell>
                <mxCell id="JCtmZdt_2WdeK-rqbrRk-18" value="Flight no." style="shape=ellipse;html=1;dashed=0;whitespace=wrap;perimeter=ellipsePerimeter;fontSize=14;" parent="1" vertex="1">
                    <mxGeometry x="170" y="690" width="100" height="30" as="geometry"/>
                </mxCell>
                <mxCell id="JCtmZdt_2WdeK-rqbrRk-19" style="edgeStyle=none;html=1;exitX=0.5;exitY=1;exitDx=0;exitDy=0;entryX=0.5;entryY=0;entryDx=0;entryDy=0;fontSize=14;" parent="1" source="JCtmZdt_2WdeK-rqbrRk-20" target="JCtmZdt_2WdeK-rqbrRk-17" edge="1">
                    <mxGeometry relative="1" as="geometry"/>
                </mxCell>
                <mxCell id="JCtmZdt_2WdeK-rqbrRk-20" value="first name" style="shape=ellipse;html=1;dashed=0;whitespace=wrap;perimeter=ellipsePerimeter;fontSize=14;" parent="1" vertex="1">
                    <mxGeometry x="305" y="690" width="100" height="30" as="geometry"/>
                </mxCell>
                <mxCell id="JCtmZdt_2WdeK-rqbrRk-21" value="last name" style="shape=ellipse;html=1;dashed=0;whitespace=wrap;perimeter=ellipsePerimeter;fontSize=14;" parent="1" vertex="1">
                    <mxGeometry x="305" y="820" width="100" height="30" as="geometry"/>
                </mxCell>
                <mxCell id="-y7fs_QI5CVMl4S2N7Ec-1" value="Arrival date" style="shape=ellipse;html=1;dashed=0;whitespace=wrap;perimeter=ellipsePerimeter;fontSize=14;" parent="1" vertex="1">
                    <mxGeometry x="150" y="790" width="100" height="30" as="geometry"/>
                </mxCell>
            </root>
        </mxGraphModel>
    </diagram>
    <diagram id="gqZX0yNygkhfncfnfTFA" name="Activity">
        <mxGraphModel dx="746" dy="521" grid="1" gridSize="10" guides="1" tooltips="1" connect="1" arrows="1" fold="1" page="1" pageScale="1" pageWidth="850" pageHeight="1100" math="0" shadow="0">
            <root>
                <mxCell id="0"/>
                <mxCell id="1" parent="0"/>
                <mxCell id="DJA7ooN3JJAI9p9Ptd7A-38" value="" style="shape=internalStorage;whiteSpace=wrap;html=1;backgroundOutline=1;fontSize=12;fillColor=#FFFFFF;dx=160;dy=30;" parent="1" vertex="1">
                    <mxGeometry x="190" y="250" width="350" height="570" as="geometry"/>
                </mxCell>
                <mxCell id="DJA7ooN3JJAI9p9Ptd7A-39" value="&lt;font style=&quot;font-size: 14px;&quot;&gt;Customer&lt;/font&gt;" style="text;html=1;strokeColor=none;fillColor=none;align=center;verticalAlign=middle;whiteSpace=wrap;rounded=0;fontSize=12;" parent="1" vertex="1">
                    <mxGeometry x="210" y="250" width="160" height="30" as="geometry"/>
                </mxCell>
                <mxCell id="DJA7ooN3JJAI9p9Ptd7A-40" value="&lt;span style=&quot;font-size: 14px;&quot;&gt;Banking system&lt;/span&gt;" style="text;html=1;strokeColor=none;fillColor=none;align=center;verticalAlign=middle;whiteSpace=wrap;rounded=0;fontSize=12;" parent="1" vertex="1">
                    <mxGeometry x="370" y="250" width="180" height="30" as="geometry"/>
                </mxCell>
                <mxCell id="DJA7ooN3JJAI9p9Ptd7A-72" style="edgeStyle=none;html=1;exitX=0.5;exitY=0.5;exitDx=0;exitDy=15;exitPerimeter=0;entryX=0.5;entryY=0;entryDx=0;entryDy=0;" parent="1" source="DJA7ooN3JJAI9p9Ptd7A-42" target="DJA7ooN3JJAI9p9Ptd7A-71" edge="1">
                    <mxGeometry relative="1" as="geometry"/>
                </mxCell>
                <mxCell id="DJA7ooN3JJAI9p9Ptd7A-42" value="start" style="html=1;dashed=0;whitespace=wrap;shape=mxgraph.dfd.start;fontSize=14;fillColor=#FFFFFF;" parent="1" vertex="1">
                    <mxGeometry x="253.75" y="330" width="80" height="30" as="geometry"/>
                </mxCell>
                <mxCell id="DJA7ooN3JJAI9p9Ptd7A-43" style="edgeStyle=none;html=1;exitX=0.5;exitY=1;exitDx=0;exitDy=0;entryX=0.5;entryY=0.5;entryDx=0;entryDy=-15;entryPerimeter=0;fontSize=14;" parent="1" source="DJA7ooN3JJAI9p9Ptd7A-44" target="DJA7ooN3JJAI9p9Ptd7A-42" edge="1">
                    <mxGeometry relative="1" as="geometry"/>
                </mxCell>
                <mxCell id="DJA7ooN3JJAI9p9Ptd7A-44" value="" style="ellipse;whiteSpace=wrap;html=1;aspect=fixed;fontSize=14;fillColor=#FFFFFF;" parent="1" vertex="1">
                    <mxGeometry x="278.75" y="280" width="30" height="30" as="geometry"/>
                </mxCell>
                <mxCell id="DJA7ooN3JJAI9p9Ptd7A-147" style="edgeStyle=none;html=1;exitX=1;exitY=0.5;exitDx=0;exitDy=0;exitPerimeter=0;entryX=0;entryY=0.5;entryDx=0;entryDy=0;" parent="1" source="DJA7ooN3JJAI9p9Ptd7A-46" target="DJA7ooN3JJAI9p9Ptd7A-59" edge="1">
                    <mxGeometry relative="1" as="geometry"/>
                </mxCell>
                <mxCell id="DJA7ooN3JJAI9p9Ptd7A-46" value="&lt;font style=&quot;font-size: 12px;&quot;&gt;Provides login info&lt;/font&gt;" style="html=1;dashed=0;whitespace=wrap;shape=mxgraph.dfd.start;fontSize=14;fillColor=#FFFFFF;" parent="1" vertex="1">
                    <mxGeometry x="238.12" y="451" width="110" height="30" as="geometry"/>
                </mxCell>
                <mxCell id="DJA7ooN3JJAI9p9Ptd7A-48" style="edgeStyle=none;html=1;exitX=0.5;exitY=0.5;exitDx=0;exitDy=15;exitPerimeter=0;entryX=0.5;entryY=0.5;entryDx=0;entryDy=-15;entryPerimeter=0;fontSize=12;" parent="1" source="DJA7ooN3JJAI9p9Ptd7A-49" target="DJA7ooN3JJAI9p9Ptd7A-53" edge="1">
                    <mxGeometry relative="1" as="geometry"/>
                </mxCell>
                <mxCell id="DJA7ooN3JJAI9p9Ptd7A-148" style="edgeStyle=none;html=1;exitX=0;exitY=0.5;exitDx=0;exitDy=0;exitPerimeter=0;entryX=1;entryY=0.5;entryDx=0;entryDy=0;entryPerimeter=0;" parent="1" source="DJA7ooN3JJAI9p9Ptd7A-51" target="DJA7ooN3JJAI9p9Ptd7A-49" edge="1">
                    <mxGeometry relative="1" as="geometry">
                        <Array as="points">
                            <mxPoint x="360" y="535"/>
                        </Array>
                    </mxGeometry>
                </mxCell>
                <mxCell id="DJA7ooN3JJAI9p9Ptd7A-49" value="Display flight info" style="html=1;dashed=0;whitespace=wrap;shape=mxgraph.dfd.start;fontSize=12;fillColor=#FFFFFF;" parent="1" vertex="1">
                    <mxGeometry x="227.5" y="500" width="105" height="30" as="geometry"/>
                </mxCell>
                <mxCell id="DJA7ooN3JJAI9p9Ptd7A-51" value="Session start" style="html=1;dashed=0;whitespace=wrap;shape=mxgraph.dfd.start;fontSize=12;fillColor=#FFFFFF;" parent="1" vertex="1">
                    <mxGeometry x="400" y="510" width="100" height="30" as="geometry"/>
                </mxCell>
                <mxCell id="DJA7ooN3JJAI9p9Ptd7A-150" style="edgeStyle=none;html=1;exitX=1;exitY=0.5;exitDx=0;exitDy=0;exitPerimeter=0;entryX=0;entryY=0.5;entryDx=0;entryDy=0;entryPerimeter=0;" parent="1" source="DJA7ooN3JJAI9p9Ptd7A-53" target="DJA7ooN3JJAI9p9Ptd7A-55" edge="1">
                    <mxGeometry relative="1" as="geometry"/>
                </mxCell>
                <mxCell id="DJA7ooN3JJAI9p9Ptd7A-53" value="Book flight" style="html=1;dashed=0;whitespace=wrap;shape=mxgraph.dfd.start;fontSize=12;fillColor=#FFFFFF;" parent="1" vertex="1">
                    <mxGeometry x="223.75" y="550" width="110" height="30" as="geometry"/>
                </mxCell>
                <mxCell id="DJA7ooN3JJAI9p9Ptd7A-55" value="Check availability" style="html=1;dashed=0;whitespace=wrap;shape=mxgraph.dfd.start;fontSize=12;fillColor=#FFFFFF;" parent="1" vertex="1">
                    <mxGeometry x="392.5" y="551" width="115" height="29" as="geometry"/>
                </mxCell>
                <mxCell id="DJA7ooN3JJAI9p9Ptd7A-152" style="edgeStyle=none;html=1;exitX=0;exitY=0.5;exitDx=0;exitDy=0;exitPerimeter=0;entryX=1;entryY=0.5;entryDx=0;entryDy=0;entryPerimeter=0;" parent="1" source="DJA7ooN3JJAI9p9Ptd7A-151" target="DJA7ooN3JJAI9p9Ptd7A-57" edge="1">
                    <mxGeometry relative="1" as="geometry"/>
                </mxCell>
                <mxCell id="DJA7ooN3JJAI9p9Ptd7A-57" value="Grant payement" style="html=1;dashed=0;whitespace=wrap;shape=mxgraph.dfd.start;fontSize=12;fillColor=#FFFFFF;" parent="1" vertex="1">
                    <mxGeometry x="226.25" y="595.5" width="102.5" height="30" as="geometry"/>
                </mxCell>
                <mxCell id="DJA7ooN3JJAI9p9Ptd7A-146" style="edgeStyle=none;html=1;exitX=0.5;exitY=1;exitDx=0;exitDy=0;" parent="1" source="DJA7ooN3JJAI9p9Ptd7A-59" target="DJA7ooN3JJAI9p9Ptd7A-51" edge="1">
                    <mxGeometry relative="1" as="geometry"/>
                </mxCell>
                <mxCell id="DJA7ooN3JJAI9p9Ptd7A-162" style="edgeStyle=none;html=1;exitX=1;exitY=0.5;exitDx=0;exitDy=0;entryX=0;entryY=0.5;entryDx=0;entryDy=0;" parent="1" source="DJA7ooN3JJAI9p9Ptd7A-59" target="DJA7ooN3JJAI9p9Ptd7A-71" edge="1">
                    <mxGeometry relative="1" as="geometry">
                        <Array as="points">
                            <mxPoint x="530" y="466"/>
                            <mxPoint x="530" y="320"/>
                            <mxPoint x="220" y="320"/>
                            <mxPoint x="220" y="410"/>
                        </Array>
                    </mxGeometry>
                </mxCell>
                <mxCell id="DJA7ooN3JJAI9p9Ptd7A-59" value="verify &lt;br&gt;login&amp;nbsp;" style="shape=rhombus;html=1;dashed=0;whitespace=wrap;perimeter=rhombusPerimeter;fontSize=12;fillColor=#FFFFFF;" parent="1" vertex="1">
                    <mxGeometry x="420" y="441" width="60" height="50" as="geometry"/>
                </mxCell>
                <mxCell id="DJA7ooN3JJAI9p9Ptd7A-60" value="Yes" style="text;html=1;strokeColor=none;fillColor=none;align=center;verticalAlign=middle;whiteSpace=wrap;rounded=0;fontSize=12;" parent="1" vertex="1">
                    <mxGeometry x="400" y="401" width="60" height="30" as="geometry"/>
                </mxCell>
                <mxCell id="DJA7ooN3JJAI9p9Ptd7A-155" style="edgeStyle=none;html=1;exitX=0;exitY=0.5;exitDx=0;exitDy=0;entryX=1;entryY=0.5;entryDx=0;entryDy=0;entryPerimeter=0;" parent="1" source="DJA7ooN3JJAI9p9Ptd7A-63" target="DJA7ooN3JJAI9p9Ptd7A-156" edge="1">
                    <mxGeometry relative="1" as="geometry"/>
                </mxCell>
                <mxCell id="DJA7ooN3JJAI9p9Ptd7A-157" style="edgeStyle=none;html=1;exitX=1;exitY=0.5;exitDx=0;exitDy=0;" parent="1" source="DJA7ooN3JJAI9p9Ptd7A-63" edge="1">
                    <mxGeometry relative="1" as="geometry">
                        <mxPoint x="230" y="565" as="targetPoint"/>
                        <Array as="points">
                            <mxPoint x="510" y="680"/>
                            <mxPoint x="510" y="810"/>
                            <mxPoint x="200" y="810"/>
                            <mxPoint x="200" y="565"/>
                        </Array>
                    </mxGeometry>
                </mxCell>
                <mxCell id="DJA7ooN3JJAI9p9Ptd7A-63" value="&lt;span style=&quot;font-size: 11px;&quot;&gt;Payment&lt;br&gt;verified?&lt;br&gt;&lt;/span&gt;" style="shape=rhombus;html=1;dashed=0;whitespace=wrap;perimeter=rhombusPerimeter;fontSize=12;fillColor=#FFFFFF;" parent="1" vertex="1">
                    <mxGeometry x="407.5" y="650" width="85" height="60" as="geometry"/>
                </mxCell>
                <mxCell id="DJA7ooN3JJAI9p9Ptd7A-66" value="Session end" style="html=1;dashed=0;whitespace=wrap;shape=mxgraph.dfd.start;fontSize=11;fillColor=#FFFFFF;" parent="1" vertex="1">
                    <mxGeometry x="412.5" y="760" width="80" height="25" as="geometry"/>
                </mxCell>
                <mxCell id="DJA7ooN3JJAI9p9Ptd7A-67" value="Log out" style="html=1;dashed=0;whitespace=wrap;shape=mxgraph.dfd.start;fontSize=11;fillColor=#FFFFFF;" parent="1" vertex="1">
                    <mxGeometry x="252.5" y="770" width="52.5" height="20" as="geometry"/>
                </mxCell>
                <mxCell id="DJA7ooN3JJAI9p9Ptd7A-68" style="edgeStyle=none;html=1;exitX=0.5;exitY=1;exitDx=0;exitDy=0;fontSize=11;" parent="1" source="DJA7ooN3JJAI9p9Ptd7A-69" edge="1">
                    <mxGeometry relative="1" as="geometry">
                        <mxPoint x="278" y="760" as="targetPoint"/>
                    </mxGeometry>
                </mxCell>
                <mxCell id="DJA7ooN3JJAI9p9Ptd7A-69" value="" style="ellipse;shape=doubleEllipse;html=1;dashed=0;whitespace=wrap;aspect=fixed;fontSize=11;fillColor=#FFFFFF;" parent="1" vertex="1">
                    <mxGeometry x="267.5" y="720" width="20" height="20" as="geometry"/>
                </mxCell>
                <mxCell id="DJA7ooN3JJAI9p9Ptd7A-70" value="No" style="text;html=1;strokeColor=none;fillColor=none;align=center;verticalAlign=middle;whiteSpace=wrap;rounded=0;fontSize=12;" parent="1" vertex="1">
                    <mxGeometry x="310" y="370" width="60" height="30" as="geometry"/>
                </mxCell>
                <mxCell id="DJA7ooN3JJAI9p9Ptd7A-73" style="edgeStyle=none;html=1;exitX=0.5;exitY=1;exitDx=0;exitDy=0;entryX=0.5;entryY=0.5;entryDx=0;entryDy=-15;entryPerimeter=0;" parent="1" source="DJA7ooN3JJAI9p9Ptd7A-71" target="DJA7ooN3JJAI9p9Ptd7A-46" edge="1">
                    <mxGeometry relative="1" as="geometry"/>
                </mxCell>
                <mxCell id="DJA7ooN3JJAI9p9Ptd7A-145" style="edgeStyle=none;html=1;exitX=1;exitY=0.5;exitDx=0;exitDy=0;entryX=0;entryY=0.5;entryDx=0;entryDy=0;entryPerimeter=0;" parent="1" source="DJA7ooN3JJAI9p9Ptd7A-71" target="DJA7ooN3JJAI9p9Ptd7A-144" edge="1">
                    <mxGeometry relative="1" as="geometry">
                        <Array as="points"/>
                    </mxGeometry>
                </mxCell>
                <mxCell id="DJA7ooN3JJAI9p9Ptd7A-71" value="Member?" style="rhombus;whiteSpace=wrap;html=1;" parent="1" vertex="1">
                    <mxGeometry x="256.25" y="380" width="73.75" height="50" as="geometry"/>
                </mxCell>
                <mxCell id="DJA7ooN3JJAI9p9Ptd7A-140" value="Yes" style="text;html=1;strokeColor=none;fillColor=none;align=center;verticalAlign=middle;whiteSpace=wrap;rounded=0;fontSize=12;" parent="1" vertex="1">
                    <mxGeometry x="277.5" y="421" width="60" height="30" as="geometry"/>
                </mxCell>
                <mxCell id="DJA7ooN3JJAI9p9Ptd7A-144" value="Register&lt;br&gt;member" style="html=1;dashed=0;whitespace=wrap;shape=mxgraph.dfd.start;fontSize=12;fillColor=#FFFFFF;" parent="1" vertex="1">
                    <mxGeometry x="397.5" y="390" width="100" height="30" as="geometry"/>
                </mxCell>
                <mxCell id="DJA7ooN3JJAI9p9Ptd7A-153" style="edgeStyle=none;html=1;exitX=0.5;exitY=0.5;exitDx=0;exitDy=14.5;exitPerimeter=0;entryX=0.5;entryY=0;entryDx=0;entryDy=0;" parent="1" source="DJA7ooN3JJAI9p9Ptd7A-151" target="DJA7ooN3JJAI9p9Ptd7A-63" edge="1">
                    <mxGeometry relative="1" as="geometry"/>
                </mxCell>
                <mxCell id="DJA7ooN3JJAI9p9Ptd7A-151" value="Req payment" style="html=1;dashed=0;whitespace=wrap;shape=mxgraph.dfd.start;fontSize=12;fillColor=#FFFFFF;" parent="1" vertex="1">
                    <mxGeometry x="392.5" y="595.5" width="115" height="29" as="geometry"/>
                </mxCell>
                <mxCell id="DJA7ooN3JJAI9p9Ptd7A-156" value="Success! display&lt;br&gt;tickey" style="html=1;dashed=0;whitespace=wrap;shape=mxgraph.dfd.start;fontSize=12;fillColor=#FFFFFF;" parent="1" vertex="1">
                    <mxGeometry x="222.5" y="665.5" width="115" height="29" as="geometry"/>
                </mxCell>
                <mxCell id="DJA7ooN3JJAI9p9Ptd7A-158" value="No" style="text;html=1;strokeColor=none;fillColor=none;align=center;verticalAlign=middle;whiteSpace=wrap;rounded=0;fontSize=12;" parent="1" vertex="1">
                    <mxGeometry x="492.5" y="694.5" width="60" height="30" as="geometry"/>
                </mxCell>
                <mxCell id="DJA7ooN3JJAI9p9Ptd7A-159" value="Yes" style="text;html=1;strokeColor=none;fillColor=none;align=center;verticalAlign=middle;whiteSpace=wrap;rounded=0;fontSize=12;" parent="1" vertex="1">
                    <mxGeometry x="340" y="650" width="60" height="30" as="geometry"/>
                </mxCell>
                <mxCell id="DJA7ooN3JJAI9p9Ptd7A-161" value="Yes" style="text;html=1;strokeColor=none;fillColor=none;align=center;verticalAlign=middle;whiteSpace=wrap;rounded=0;fontSize=12;" parent="1" vertex="1">
                    <mxGeometry x="437.5" y="481" width="60" height="30" as="geometry"/>
                </mxCell>
                <mxCell id="DJA7ooN3JJAI9p9Ptd7A-163" value="No" style="text;html=1;strokeColor=none;fillColor=none;align=center;verticalAlign=middle;whiteSpace=wrap;rounded=0;fontSize=12;" parent="1" vertex="1">
                    <mxGeometry x="460" y="290" width="60" height="30" as="geometry"/>
                </mxCell>
            </root>
        </mxGraphModel>
    </diagram>
</mxfile>